<svg width="90" height="80" viewBox="0 0 90 80" fill="none" xmlns="http://www.w3.org/2000/svg">
<path d="M44.8672 33.9999V36.2222H47.1339V33.9999H44.8672Z" fill="#1EEEAF"/>
<path d="M42.5996 36.2231V38.4453H44.8663V36.2231H42.5996Z" fill="#1EEEAF"/>
<path d="M49.3994 49.5562L49.3994 47.334L47.1327 47.334L47.1327 49.5562L49.3994 49.5562Z" fill="#1EEEAF"/>
<path d="M40.333 38.4443V40.6665H42.5997V38.4443H40.333Z" fill="#1EEEAF"/>
<path d="M51.667 47.3331L51.667 45.1108L49.4003 45.1108L49.4003 47.3331L51.667 47.3331Z" fill="#1EEEAF"/>
<path d="M40.333 40.6674V42.8896H42.5997V40.6674H40.333Z" fill="#1EEEAF"/>
<path d="M51.667 45.1119L51.667 42.8896L49.4003 42.8896L49.4003 45.1119L51.667 45.1119Z" fill="#1EEEAF"/>
<path d="M40.333 42.8886V45.1108H42.5997V42.8886H40.333Z" fill="#1EEEAF"/>
<path d="M51.667 42.8887L51.667 40.6665L49.4003 40.6665L49.4003 42.8887L51.667 42.8887Z" fill="#1EEEAF"/>
<path d="M40.333 45.1118V47.334H42.5997V45.1118H40.333Z" fill="#1EEEAF"/>
<path d="M51.667 40.6675L51.667 38.4453L49.4003 38.4453L49.4003 40.6675L51.667 40.6675Z" fill="#1EEEAF"/>
<path d="M42.5996 47.331V49.5532H44.8663V47.331H42.5996Z" fill="#1EEEAF"/>
<path d="M49.3994 38.4444L49.3994 36.2222L47.1327 36.2222L47.1327 38.4444L49.3994 38.4444Z" fill="#1EEEAF"/>
<path d="M44.8672 49.5541V51.7764H47.1339V49.5541H44.8672Z" fill="#1EEEAF"/>
<path d="M44.8672 51.7773V53.9995H47.1339V51.7773H44.8672Z" fill="#1EEEAF"/>
<path d="M44.8672 54.0004V56.2227H47.1339V54.0004H44.8672Z" fill="#1EEEAF"/>
<path d="M44.8672 56.2216V58.4438H47.1339V56.2216H44.8672Z" fill="#1EEEAF"/>
<path d="M44.8672 58.4428V60.665H47.1339V58.4428H44.8672Z" fill="#1EEEAF"/>
<path d="M44.8672 58.4428V60.665H42.6005V58.4428H44.8672Z" fill="#1EEEAF"/>
<path d="M47.1338 58.4428V60.665H49.4005V58.4428H47.1338Z" fill="#1EEEAF"/>
<path d="M42.5996 56.2216V58.4438H40.3329V56.2216H42.5996Z" fill="#1EEEAF"/>
<path d="M49.3994 56.2216V58.4438H51.6661V56.2216H49.3994Z" fill="#1EEEAF"/>
<path d="M40.334 54.0004V56.2227H38.0673V54.0004H40.334Z" fill="#1EEEAF"/>
<path d="M51.668 54.0004V56.2227H53.9347V54.0004H51.668Z" fill="#1EEEAF"/>
<path d="M38.0674 51.7773V53.9995H35.8007V51.7773H38.0674Z" fill="#1EEEAF"/>
<path d="M53.9336 51.7773V53.9995H56.2003V51.7773H53.9336Z" fill="#1EEEAF"/>
<path d="M35.7998 49.5541V51.7764H33.5331V49.5541H35.7998Z" fill="#1EEEAF"/>
<path d="M56.2002 49.5541V51.7764H58.4669V49.5541H56.2002Z" fill="#1EEEAF"/>
<path d="M33.5332 49.5541V51.7764H31.2665V49.5541H33.5332Z" fill="#1EEEAF"/>
<path d="M58.4678 49.5541V51.7764H60.7345V49.5541H58.4678Z" fill="#1EEEAF"/>
<path d="M33.5332 54.0004V56.2227H31.2665V54.0004H33.5332Z" fill="#1EEEAF"/>
<path d="M31.2666 51.7773V53.9995H28.9999V51.7773H31.2666Z" fill="#1EEEAF"/>
<path d="M58.4658 54.0004V56.2227H60.7325V54.0004H58.4658Z" fill="#1EEEAF"/>
<path d="M60.7334 51.7773V53.9995H63.0001V51.7773H60.7334Z" fill="#1EEEAF"/>
<path d="M31.2666 49.5541V51.7764H28.9999V49.5541H31.2666Z" fill="#1EEEAF"/>
<path d="M60.7334 49.5541V51.7764H63.0001V49.5541H60.7334Z" fill="#1EEEAF"/>
<path d="M33.5332 56.2216V58.4438H31.2665V56.2216H33.5332Z" fill="#1EEEAF"/>
<path d="M58.4678 56.2216V58.4438H60.7345V56.2216H58.4678Z" fill="#1EEEAF"/>
<path d="M35.7998 58.4428V60.665H33.5331V58.4428H35.7998Z" fill="#1EEEAF"/>
<path d="M56.2002 58.4428V60.665H58.4669V58.4428H56.2002Z" fill="#1EEEAF"/>
<path d="M38.0674 60.666V62.8882H35.8007V60.666H38.0674Z" fill="#1EEEAF"/>
<path d="M53.9336 60.666V62.8882H56.2003V60.666H53.9336Z" fill="#1EEEAF"/>
<path d="M40.334 60.666V62.8882H38.0673V60.666H40.334Z" fill="#1EEEAF"/>
<path d="M51.668 60.666V62.8882H53.9347V60.666H51.668Z" fill="#1EEEAF"/>
<path d="M44.8672 62.8891V65.1113H42.6005V62.8891H44.8672Z" fill="#1EEEAF"/>
<path d="M47.1338 62.8891V65.1113H49.4005V62.8891H47.1338Z" fill="#1EEEAF"/>
<path d="M42.5996 62.8891V65.1113H40.3329V62.8891H42.5996Z" fill="#1EEEAF"/>
<path d="M49.3994 62.8891V65.1113H51.6661V62.8891H49.3994Z" fill="#1EEEAF"/>
<path d="M44.8672 60.666V62.8882H47.1339V60.666H44.8672Z" fill="#1EEEAF"/>
<path d="M44.8672 62.8891V65.1113H47.1339V62.8891H44.8672Z" fill="#1EEEAF"/>
<path d="M44.8672 65.1103V67.3325H47.1339V65.1103H44.8672Z" fill="#1EEEAF"/>
<path d="M44.8672 67.3334V69.5557H47.1339V67.3334H44.8672Z" fill="#1EEEAF"/>
<path d="M44.8672 69.5546V71.7769H47.1339V69.5546H44.8672Z" fill="#1EEEAF"/>
<path d="M44.8672 71.7778V74H47.1339V71.7778H44.8672Z" fill="#1EEEAF"/>
<rect x="73" y="48" width="2.00004" height="1.99976" fill="white"/>
<rect x="73" y="52" width="2.00004" height="1.99976" fill="white"/>
<rect x="75" y="50" width="2.00004" height="1.99976" fill="white"/>
<rect x="71" y="50" width="2.00004" height="1.99976" fill="white"/>
<rect x="21.667" y="63" width="2.66672" height="2.66672" fill="white"/>
<rect x="21.667" y="68.3345" width="2.66672" height="2.66672" fill="white"/>
<rect x="24.3335" y="65.666" width="2.66672" height="2.66672" fill="white"/>
<rect x="19" y="65.666" width="2.66672" height="2.66672" fill="white"/>
<rect x="36" y="6" width="2.00004" height="1.99976" fill="white"/>
<rect x="36" y="10" width="2.00004" height="1.99976" fill="white"/>
<rect x="38" y="8" width="2.00004" height="1.99976" fill="white"/>
<rect x="34" y="8" width="2.00004" height="1.99976" fill="white"/>
<path d="M66.5002 12.7495H64.2275V15.0211H66.5002V12.7495Z" fill="#6C86FF"/>
<path d="M68.7727 12.7495H66.5V15.0211H68.7727V12.7495Z" fill="#6C86FF"/>
<path d="M71.0452 15.0215H68.7725V17.2931H71.0452V15.0215Z" fill="#6C86FF"/>
<path d="M64.2268 15.0215H61.9541V17.2931H64.2268V15.0215Z" fill="#6C86FF"/>
<path d="M61.9543 17.292H59.6816V19.5636H61.9543V17.292Z" fill="#6C86FF"/>
<path d="M61.9543 19.5645H59.6816V21.8361H61.9543V19.5645Z" fill="#6C86FF"/>
<path d="M64.2268 21.8369H61.9541V24.1086H64.2268V21.8369Z" fill="#6C86FF"/>
<path d="M66.5002 24.1074H64.2275V26.3791H66.5002V24.1074Z" fill="#6C86FF"/>
<path d="M68.7727 24.1074H66.5V26.3791H68.7727V24.1074Z" fill="#6C86FF"/>
<path d="M71.0452 21.8369H68.7725V24.1086H71.0452V21.8369Z" fill="#6C86FF"/>
<path d="M73.3176 19.0645H71.0449V20.2008H73.3176V19.0645Z" fill="#6C86FF"/>
<path d="M71.046 19.0645H68.2051V20.2008H71.046V19.0645Z" fill="#6C86FF"/>
<path d="M68.205 17.9287H64.7959V21.3362H68.205V17.9287Z" fill="#6C86FF"/>
<path d="M65.3635 7.07031H63.0908V9.34195H65.3635V7.07031Z" fill="#6C86FF"/>
<path d="M63.0911 9.34082H60.8184V11.6125H63.0911V9.34082Z" fill="#6C86FF"/>
<path d="M72.1819 9.34082H69.9092V11.6125H72.1819V9.34082Z" fill="#6C86FF"/>
<path d="M74.4543 9.34082H72.1816V11.6125H74.4543V9.34082Z" fill="#6C86FF"/>
<path d="M67.636 7.07031H65.3633V9.34195H67.636V7.07031Z" fill="#6C86FF"/>
<path d="M69.9084 7.07031H67.6357V9.34195H69.9084V7.07031Z" fill="#6C86FF"/>
<path d="M58.5449 9.3436V11.6152H60.8176V9.3436H58.5449Z" fill="#6C86FF"/>
<path d="M56.2734 11.682V13.9536H58.5461V11.682H56.2734Z" fill="#6C86FF"/>
<path d="M54 16.2249V18.4966H56.2727V16.2249H54Z" fill="#6C86FF"/>
<path d="M56.2734 13.9544V16.2261H58.5461V13.9544H56.2734Z" fill="#6C86FF"/>
<path d="M74.4541 13.9544V16.2261H76.7268V13.9544H74.4541Z" fill="#6C86FF"/>
<path d="M54.0007 20.7124H56.2734V18.4408H54.0007V20.7124Z" fill="#6C86FF"/>
<path d="M54.0007 22.9829H56.2734V20.7113H54.0007V22.9829Z" fill="#6C86FF"/>
<path d="M76.7275 16.2249V18.4966H79.0002V16.2249H76.7275Z" fill="#6C86FF"/>
<path d="M76.7263 20.769H78.999V18.4974H76.7263V20.769Z" fill="#6C86FF"/>
<path d="M76.7263 23.0396H78.999V20.7679H76.7263V23.0396Z" fill="#6C86FF"/>
<path d="M74.4541 11.682V13.9536H76.7268V11.682H74.4541Z" fill="#6C86FF"/>
<path d="M67.6365 32.0703H69.9092V29.7987H67.6365V32.0703Z" fill="#6C86FF"/>
<path d="M69.9089 29.7979H72.1816V27.5262H69.9089V29.7979Z" fill="#6C86FF"/>
<path d="M60.8181 29.7979H63.0908V27.5262H60.8181V29.7979Z" fill="#6C86FF"/>
<path d="M58.5457 29.7979H60.8184V27.5262H58.5457V29.7979Z" fill="#6C86FF"/>
<path d="M65.363 32.0703H67.6357V29.7987H65.363V32.0703Z" fill="#6C86FF"/>
<path d="M63.0906 32.0703H65.3633V29.7987H63.0906V32.0703Z" fill="#6C86FF"/>
<path d="M74.4541 29.799V27.5273H72.1814V29.799H74.4541Z" fill="#6C86FF"/>
<path d="M76.7275 27.529V25.2573H74.4548V27.529H76.7275Z" fill="#6C86FF"/>
<path d="M76.7268 23.0396H74.4541V25.3112H76.7268V23.0396Z" fill="#6C86FF"/>
<path d="M58.5449 27.529V25.2573H56.2722V27.529H58.5449Z" fill="#6C86FF"/>
<path d="M58.5461 22.9712H56.2734V25.2428H58.5461V22.9712Z" fill="#6C86FF"/>
<path d="M20.999 25.998H19V27.9971H20.999V25.998Z" fill="white"/>
<path d="M22.998 25.998H20.999V27.9971H22.998V25.998Z" fill="white"/>
<path d="M24.999 27.9961H23V29.9952H24.999V27.9961Z" fill="white"/>
<path d="M18.998 27.9961H16.999V29.9952H18.998V27.9961Z" fill="white"/>
<path d="M16.998 29.9961H14.999V31.9952H16.998V29.9961Z" fill="white"/>
<path d="M16.998 31.9961H14.999V33.9952H16.998V31.9961Z" fill="white"/>
<path d="M18.998 33.9941H16.999V35.9932H18.998V33.9941Z" fill="white"/>
<path d="M20.999 35.9922H19V37.9913H20.999V35.9922Z" fill="white"/>
<path d="M22.998 35.9922H20.999V37.9913H22.998V35.9922Z" fill="white"/>
<path d="M24.999 33.9941H23V35.9932H24.999V33.9941Z" fill="white"/>
<path d="M26.998 31.5547H24.999V32.5542H26.998V31.5547Z" fill="white"/>
<path d="M25 31.5547H22.5V32.5542H25V31.5547Z" fill="white"/>
<path d="M22.5 30.5566H19.5V33.5553H22.5V30.5566Z" fill="white"/>
<path d="M19.999 21H18V22.9991H19.999V21Z" fill="white"/>
<path d="M17.999 22.998H16V24.9971H17.999V22.998Z" fill="white"/>
<path d="M25.999 22.998H24V24.9971H25.999V22.998Z" fill="white"/>
<path d="M27.999 22.998H26V24.9971H27.999V22.998Z" fill="white"/>
<path d="M21.999 21H20V22.9991H21.999V21Z" fill="white"/>
<path d="M23.998 21H21.999V22.9991H23.998V21Z" fill="white"/>
<path d="M14 22.999V24.998H15.999V22.999H14Z" fill="white"/>
<path d="M12 25.0576V27.0566H13.999V25.0576H12Z" fill="white"/>
<path d="M10 29.0576V31.0566H11.999V29.0576H10Z" fill="white"/>
<path d="M12 27.0576V29.0566H13.999V27.0576H12Z" fill="white"/>
<path d="M28 27.0576V29.0566H29.999V27.0576H28Z" fill="white"/>
<path d="M10.001 33.0059H12V31.0068H10.001V33.0059Z" fill="white"/>
<path d="M10.001 35.0039H12V33.0048H10.001V35.0039Z" fill="white"/>
<path d="M30 29.0576V31.0566H31.999V29.0576H30Z" fill="white"/>
<path d="M30.001 33.0547H32V31.0556H30.001V33.0547Z" fill="white"/>
<path d="M30.001 35.0527H32V33.0536H30.001V35.0527Z" fill="white"/>
<path d="M28 25.0576V27.0566H29.999V25.0576H28Z" fill="white"/>
<path d="M22.001 43H24V41.0009H22.001V43Z" fill="white"/>
<path d="M24.001 41.002H26V39.0029H24.001V41.002Z" fill="white"/>
<path d="M16.001 41.002H18V39.0029H16.001V41.002Z" fill="white"/>
<path d="M14.001 41.002H16V39.0029H14.001V41.002Z" fill="white"/>
<path d="M20 43H21.999V41.0009H20V43Z" fill="white"/>
<path d="M18.001 43H20V41.0009H18.001V43Z" fill="white"/>
<path d="M28 41.001V39.002H26.001V41.001H28Z" fill="white"/>
<path d="M30 39.003V37.0039H28.001V39.003H30Z" fill="white"/>
<path d="M29.999 35.0527H28V37.0518H29.999V35.0527Z" fill="white"/>
<path d="M14 39.003V37.0039H12.001V39.003H14Z" fill="white"/>
<path d="M13.999 34.9941H12V36.9932H13.999V34.9941Z" fill="white"/>
</svg>
