<svg width="60" height="74" viewBox="0 0 60 74" fill="none" xmlns="http://www.w3.org/2000/svg">
<rect x="3.15771" y="45.5796" width="53.6842" height="25.2632" fill="#94949E"/>
<rect x="3.15771" y="39.2637" width="9.47368" height="25.2632" fill="#94949E"/>
<rect x="47.3682" y="39.2637" width="9.47368" height="25.2632" fill="#94949E"/>
<rect y="55.0532" width="3.15789" height="3.15789" fill="#414141"/>
<rect y="58.2109" width="3.15789" height="3.15789" fill="#414141"/>
<rect y="61.3691" width="3.15789" height="3.15789" fill="#414141"/>
<rect y="64.5269" width="3.15789" height="3.15789" fill="#414141"/>
<rect y="67.6846" width="3.15789" height="3.15789" fill="#414141"/>
<rect x="3.15771" y="70.8428" width="53.6842" height="3.15789" fill="#414141"/>
<rect x="56.8423" y="58.2109" width="3.15789" height="3.15789" fill="#414141"/>
<rect x="56.8423" y="61.3691" width="3.15789" height="3.15789" fill="#414141"/>
<rect x="56.8423" y="64.5269" width="3.15789" height="3.15789" fill="#414141"/>
<rect x="56.8423" y="67.6846" width="3.15789" height="3.15789" fill="#414141"/>
<rect x="25.2632" y="55.0532" width="3.15789" height="3.15789" fill="#414141"/>
<rect x="31.9741" y="55.0532" width="3.15789" height="3.15789" fill="#414141"/>
<rect x="22.1055" y="60.5796" width="3.15789" height="3.15789" fill="#414141"/>
<rect x="28.4214" y="63.7373" width="3.15789" height="3.15789" fill="#414141"/>
<rect x="25.2632" y="63.7373" width="3.15789" height="3.15789" fill="#414141"/>
<rect x="34.7368" y="60.5796" width="3.15789" height="3.15789" fill="#414141"/>
<rect x="31.5791" y="63.7373" width="3.15789" height="3.15789" fill="#414141"/>
<rect x="56.8423" y="55.0532" width="3.15789" height="3.15789" fill="#414141"/>
<rect y="51.8955" width="3.15789" height="3.15789" fill="#414141"/>
<rect x="56.8423" y="51.8955" width="3.15789" height="3.15789" fill="#414141"/>
<rect y="48.7373" width="3.15789" height="3.15789" fill="#414141"/>
<rect x="56.8423" y="48.7373" width="3.15789" height="3.15789" fill="#414141"/>
<rect y="45.5796" width="3.15789" height="3.15789" fill="#414141"/>
<rect x="56.8423" y="45.5796" width="3.15789" height="3.15789" fill="#414141"/>
<rect y="42.4219" width="3.15789" height="3.15789" fill="#414141"/>
<rect x="56.8423" y="42.4219" width="3.15789" height="3.15789" fill="#414141"/>
<rect y="39.2637" width="3.15789" height="3.15789" fill="#414141"/>
<rect x="3.15771" y="36.106" width="3.15789" height="3.15789" fill="#414141"/>
<rect x="6.31592" y="39.2637" width="6.31579" height="3.15789" fill="#414141"/>
<rect x="12.6318" y="42.4219" width="3.15789" height="3.15789" fill="#414141"/>
<rect x="44.2104" y="42.4219" width="3.15789" height="3.15789" fill="#414141"/>
<rect x="47.3682" y="39.2637" width="3.15789" height="3.15789" fill="#414141"/>
<rect x="50.5264" y="39.2637" width="3.15789" height="3.15789" fill="#414141"/>
<rect x="12.6313" y="45.5796" width="3.15789" height="3.15789" fill="#414141"/>
<rect x="15.7896" y="45.5796" width="31.5789" height="3.15789" fill="#414141"/>
<rect x="6.31592" y="32.9482" width="3.15789" height="3.15789" fill="#414141"/>
<rect width="3.15789" height="3.15789" transform="matrix(-1 0 0 1 53.6841 32.9482)" fill="#414141"/>
<rect width="3.15789" height="3.15789" transform="matrix(-1 0 0 1 56.8423 36.106)" fill="#414141"/>
<rect width="41.0526" height="3.15789" transform="matrix(-1 0 0 1 50.5264 29.79)" fill="#414141"/>
<rect x="56.8423" y="39.2637" width="3.15789" height="3.15789" fill="#414141"/>
<rect x="14.2104" y="8.31445" width="1.57895" height="17.3684" fill="#94949E"/>
<rect x="6.31592" y="17.7881" width="1.57895" height="17.3684" transform="rotate(-90 6.31592 17.7881)" fill="#94949E"/>
<rect x="11.8423" y="13.8408" width="6.31579" height="6.31579" fill="#414141"/>
<rect x="33.9473" width="1.57895" height="11.0526" fill="#414141"/>
<rect x="29.2104" y="6.31592" width="1.57895" height="11.0526" transform="rotate(-90 29.2104 6.31592)" fill="#414141"/>
<rect x="32.3682" y="3.15771" width="4.73684" height="4.73684" fill="#94949E"/>
<rect x="52.895" y="20.9463" width="1.57895" height="1.57895" transform="rotate(-90 52.895 20.9463)" fill="#94949E"/>
<rect x="52.895" y="24.104" width="1.57895" height="1.57895" transform="rotate(-90 52.895 24.104)" fill="#94949E"/>
<rect x="54.4736" y="22.5249" width="1.57895" height="1.57895" transform="rotate(-90 54.4736 22.5249)" fill="#94949E"/>
<rect x="51.3159" y="22.5249" width="1.57895" height="1.57895" transform="rotate(-90 51.3159 22.5249)" fill="#94949E"/>
</svg>
