<svg width="28" height="28" viewBox="0 0 28 28" fill="none" xmlns="http://www.w3.org/2000/svg">
<rect width="28" height="28" rx="14" fill="black"/>
<path d="M12.9229 12.9231L12.9229 14L13.9998 14L13.9998 12.9231L12.9229 12.9231Z" fill="#FFA69A"/>
<path d="M14 14.0002L14 15.0771L15.0769 15.0771L15.0769 14.0002L14 14.0002Z" fill="#FFA69A"/>
<path d="M11.8462 15.0769L11.8462 16.1538L16.1539 16.1538L16.1539 15.0769L11.8462 15.0769Z" fill="#5D42FF"/>
<path d="M11.8462 11.8459L11.8462 12.9229L16.1539 12.9229L16.1539 11.8459L11.8462 11.8459Z" fill="#5D42FF"/>
<path d="M15.0769 16.1538L16.1538 16.1538L16.1538 11.8461L15.0769 11.8461L15.0769 16.1538Z" fill="#5D42FF"/>
<path d="M11.8459 16.1538L12.9229 16.1538L12.9229 11.8461L11.8459 11.8461L11.8459 16.1538Z" fill="#5D42FF"/>
<path d="M16.154 16.1538L17.231 16.1538L17.231 11.8461L16.154 11.8461L16.154 16.1538Z" fill="#66FFFF"/>
<path d="M10.7693 16.1538L11.8462 16.1538L11.8462 11.8461L10.7693 11.8461L10.7693 16.1538Z" fill="#66FFFF"/>
<path d="M16.154 16.1538L17.231 16.1538L17.231 17.2307L16.154 17.2307L16.154 16.1538Z" fill="#5D42FF"/>
<path d="M10.7693 11.8462L11.8462 11.8462L11.8462 10.7693L10.7693 10.7693L10.7693 11.8462Z" fill="#5D42FF"/>
<path d="M16.1538 11.846L16.1538 10.769L17.2307 10.769L17.2307 11.846L16.1538 11.846Z" fill="#5D42FF"/>
<path d="M11.8462 17.2307L11.8462 16.1538L10.7693 16.1538L10.7693 17.2307L11.8462 17.2307Z" fill="#5D42FF"/>
<path d="M16.1538 11.846L16.1538 10.769L11.8461 10.769L11.8461 11.846L16.1538 11.846Z" fill="#B8CCFF"/>
<path d="M16.1538 17.2307L16.1538 16.1538L11.8461 16.1538L11.8461 17.2307L16.1538 17.2307Z" fill="#B8CCFF"/>
<path d="M10.7693 9.69238L9.69238 9.69238L9.69238 10.7693L10.7693 10.7693L10.7693 9.69238Z" fill="#5D42FF"/>
<path d="M18.3079 17.231L17.231 17.231L17.231 18.3079L18.3079 18.3079L18.3079 17.231Z" fill="#5D42FF"/>
<path d="M9.69238 17.2307L9.69238 18.3076L10.7693 18.3076L10.7693 17.2307L9.69238 17.2307Z" fill="#5D42FF"/>
<path d="M17.231 9.69212L17.231 10.769L18.3079 10.769L18.3079 9.69212L17.231 9.69212Z" fill="#5D42FF"/>
<path d="M16.1538 10.7693L16.1538 9.69238L11.8461 9.69238L11.8461 10.7693L16.1538 10.7693Z" fill="#FFA69A"/>
<path d="M16.1538 18.3079L16.1538 17.231L11.8461 17.231L11.8461 18.3079L16.1538 18.3079Z" fill="#FFA69A"/>
<path d="M16.1538 10.7693L16.1538 9.69238L11.8461 9.69238L11.8461 10.7693L16.1538 10.7693Z" fill="#FFA69A"/>
<path d="M16.1538 18.3079L16.1538 17.231L11.8461 17.231L11.8461 18.3079L16.1538 18.3079Z" fill="#FFA69A"/>
<path d="M10.7693 11.8462L9.69238 11.8462L9.69238 16.1539L10.7693 16.1539L10.7693 11.8462Z" fill="#FFA5C3"/>
<path d="M18.3079 11.8462L17.231 11.8462L17.231 16.1539L18.3079 16.1539L18.3079 11.8462Z" fill="#FFA5C3"/>
<path d="M10.7693 8.61523L9.69238 8.61523L9.69238 9.69216L10.7693 9.69216L10.7693 8.61523Z" fill="#2DEEEE"/>
<path d="M19.3845 17.231L18.3076 17.231L18.3076 18.3079L19.3845 18.3079L19.3845 17.231Z" fill="#2DEEEE"/>
<path d="M9.69216 9.69238L8.61523 9.69238L8.61523 10.7693L9.69216 10.7693L9.69216 9.69238Z" fill="#2DEEEE"/>
<path d="M18.3079 18.3076L17.231 18.3076L17.231 19.3845L18.3079 19.3845L18.3079 18.3076Z" fill="#2DEEEE"/>
<path d="M8.61523 17.2307L8.61523 18.3076L9.69216 18.3076L9.69216 17.2307L8.61523 17.2307Z" fill="#16D5FF"/>
<path d="M17.231 8.61546L17.231 9.69238L18.3079 9.69238L18.3079 8.61546L17.231 8.61546Z" fill="#16D5FF"/>
<path d="M9.69238 18.3078L9.69238 19.3848L10.7693 19.3848L10.7693 18.3078L9.69238 18.3078Z" fill="#16D5FF"/>
<path d="M18.3076 9.69212L18.3076 10.769L19.3845 10.769L19.3845 9.69212L18.3076 9.69212Z" fill="#16D5FF"/>
<path d="M16.1538 9.69216L16.1538 8.61523L11.8461 8.61523L11.8461 9.69216L16.1538 9.69216Z" fill="#2DEEEE"/>
<path d="M16.1538 19.3845L16.1538 18.3076L11.8461 18.3076L11.8461 19.3845L16.1538 19.3845Z" fill="#2DEEEE"/>
<path d="M16.1538 9.69216L16.1538 8.61523L11.8461 8.61523L11.8461 9.69216L16.1538 9.69216Z" fill="#2DEEEE"/>
<path d="M16.1538 19.3845L16.1538 18.3076L11.8461 18.3076L11.8461 19.3845L16.1538 19.3845Z" fill="#2DEEEE"/>
<path d="M9.69216 11.8462L8.61523 11.8462L8.61524 16.1539L9.69216 16.1539L9.69216 11.8462Z" fill="#16D5FF"/>
<path d="M19.3845 11.8462L18.3076 11.8462L18.3076 16.1539L19.3845 16.1539L19.3845 11.8462Z" fill="#16D5FF"/>
<path d="M7.53835 6.46143L6.46143 6.46143L6.46143 7.53835L7.53835 7.53835L7.53835 6.46143Z" fill="#FFA5C3"/>
<path d="M21.5383 20.4614L20.4614 20.4614L20.4614 21.5383L21.5383 21.5383L21.5383 20.4614Z" fill="#FFA5C3"/>
<path d="M6.46169 5.38477L5.38477 5.38477L5.38477 6.46169L6.46169 6.46169L6.46169 5.38477Z" fill="#AA82FF"/>
<path d="M22.6155 21.5386L21.5386 21.5386L21.5386 22.6155L22.6155 22.6155L22.6155 21.5386Z" fill="#AA82FF"/>
<path d="M16.6921 4.30784L16.6921 5.38477L17.769 5.38477L17.769 4.30784L16.6921 4.30784Z" fill="#FF0055"/>
<path d="M10.2307 4.30784L10.2307 5.38477L11.3076 5.38477L11.3076 4.30784L10.2307 4.30784Z" fill="#FF0055"/>
<path d="M16.6921 4.30784L16.6921 5.38477L17.769 5.38477L17.769 4.30784L16.6921 4.30784Z" fill="#FF0055"/>
<path d="M11.8461 3.23069L11.8461 4.30762L16.1538 4.30762L16.1538 3.23069L11.8461 3.23069Z" fill="#FF0055"/>
<path d="M11.8461 3.23069L11.8461 4.30762L16.1538 4.30762L16.1538 3.23069L11.8461 3.23069Z" fill="#FF0055"/>
<path d="M11.8461 23.6921L11.8461 24.769L16.1538 24.769L16.1538 23.6921L11.8461 23.6921Z" fill="#FF0055"/>
<path d="M11.8461 23.6921L11.8461 24.769L16.1538 24.769L16.1538 23.6921L11.8461 23.6921Z" fill="#FF0055"/>
<path d="M12.9233 1.07689L12.9233 2.15381L15.0771 2.15381L15.0771 1.07689L12.9233 1.07689Z" fill="#FF0055"/>
<path d="M12.9233 1.07689L12.9233 2.15381L15.0771 2.15381L15.0771 1.07689L12.9233 1.07689Z" fill="#FF0055"/>
<path d="M12.9233 25.8459L12.9233 26.9229L15.0771 26.9229L15.0771 25.8459L12.9233 25.8459Z" fill="#FF0055"/>
<path d="M12.9233 25.8459L12.9233 26.9229L15.0771 26.9229L15.0771 25.8459L12.9233 25.8459Z" fill="#FF0055"/>
<path d="M12.3845 2.15403L12.3845 3.23096L13.4614 3.23096L13.4614 2.15403L12.3845 2.15403Z" fill="#FFA5C3"/>
<path d="M14.5383 2.15403L14.5383 3.23096L15.6152 3.23096L15.6152 2.15403L14.5383 2.15403Z" fill="#FFA5C3"/>
<path d="M12.3845 2.15403L12.3845 3.23096L13.4614 3.23096L13.4614 2.15403L12.3845 2.15403Z" fill="#FFA5C3"/>
<path d="M14.5383 2.15403L14.5383 3.23096L15.6152 3.23096L15.6152 2.15403L14.5383 2.15403Z" fill="#FFA5C3"/>
<path d="M12.3845 24.7693L12.3845 25.8462L13.4614 25.8462L13.4614 24.7693L12.3845 24.7693Z" fill="#FFA5C3"/>
<path d="M14.5383 24.7693L14.5383 25.8462L15.6152 25.8462L15.6152 24.7693L14.5383 24.7693Z" fill="#FFA5C3"/>
<path d="M12.3845 24.7693L12.3845 25.8462L13.4614 25.8462L13.4614 24.7693L12.3845 24.7693Z" fill="#FFA5C3"/>
<path d="M14.5383 24.7693L14.5383 25.8462L15.6152 25.8462L15.6152 24.7693L14.5383 24.7693Z" fill="#FFA5C3"/>
<path d="M12.3845 0.000225353L12.3845 1.07715L13.4614 1.07715L13.4614 0.000225306L12.3845 0.000225353Z" fill="#FFA69A"/>
<path d="M14.5383 0.000225353L14.5383 1.07715L15.6152 1.07715L15.6152 0.000225306L14.5383 0.000225353Z" fill="#FFA69A"/>
<path d="M12.3845 0.000225353L12.3845 1.07715L13.4614 1.07715L13.4614 0.000225306L12.3845 0.000225353Z" fill="#FFA69A"/>
<path d="M14.5383 0.000225353L14.5383 1.07715L15.6152 1.07715L15.6152 0.000225306L14.5383 0.000225353Z" fill="#FFA69A"/>
<path d="M12.3845 26.9231L12.3845 28L13.4614 28L13.4614 26.9231L12.3845 26.9231Z" fill="#FFA69A"/>
<path d="M14.5383 26.9231L14.5383 28L15.6152 28L15.6152 26.9231L14.5383 26.9231Z" fill="#FFA69A"/>
<path d="M12.3845 26.9231L12.3845 28L13.4614 28L13.4614 26.9231L12.3845 26.9231Z" fill="#FFA69A"/>
<path d="M14.5383 26.9231L14.5383 28L15.6152 28L15.6152 26.9231L14.5383 26.9231Z" fill="#FFA69A"/>
<path d="M6.46143 20.4617L6.46143 21.5386L7.53835 21.5386L7.53835 20.4617L6.46143 20.4617Z" fill="#5D42FF"/>
<path d="M20.4614 6.46165L20.4614 7.53857L21.5383 7.53857L21.5383 6.46165L20.4614 6.46165Z" fill="#5D42FF"/>
<path d="M5.38477 21.5383L5.38477 22.6152L6.46169 22.6152L6.46169 21.5383L5.38477 21.5383Z" fill="#AA82FF"/>
<path d="M21.5386 5.3845L21.5386 6.46143L22.6155 6.46143L22.6155 5.3845L21.5386 5.3845Z" fill="#AA82FF"/>
<path d="M1.07689 15.0767L2.15381 15.0767L2.15381 12.9229L1.07689 12.9229L1.07689 15.0767Z" fill="#FFA5C3"/>
<path d="M1.07689 15.0767L2.15381 15.0767L2.15381 12.9229L1.07689 12.9229L1.07689 15.0767Z" fill="#FFA5C3"/>
<path d="M25.8459 15.0767L26.9229 15.0767L26.9229 12.9229L25.8459 12.9229L25.8459 15.0767Z" fill="#FFA5C3"/>
<path d="M25.8459 15.0767L26.9229 15.0767L26.9229 12.9229L25.8459 12.9229L25.8459 15.0767Z" fill="#FFA5C3"/>
<path d="M16.6921 22.6155L16.6921 23.6924L17.769 23.6924L17.769 22.6155L16.6921 22.6155Z" fill="#FF709F"/>
<path d="M10.2307 22.6155L10.2307 23.6924L11.3076 23.6924L11.3076 22.6155L10.2307 22.6155Z" fill="#FF709F"/>
<path d="M16.6921 22.6155L16.6921 23.6924L17.769 23.6924L17.769 22.6155L16.6921 22.6155Z" fill="#FF709F"/>
<path d="M9.69216 7.53857L8.61523 7.53857L8.61523 8.6155L9.69216 8.6155L9.69216 7.53857Z" fill="#2DEEEE"/>
<path d="M20.4617 18.3076L19.3848 18.3076L19.3848 19.3845L20.4617 19.3845L20.4617 18.3076Z" fill="#2DEEEE"/>
<path d="M8.6155 8.61523L7.53857 8.61523L7.53857 9.69216L8.6155 9.69216L8.6155 8.61523Z" fill="#2DEEEE"/>
<path d="M19.3845 19.3848L18.3076 19.3848L18.3076 20.4617L19.3845 20.4617L19.3845 19.3848Z" fill="#2DEEEE"/>
<path d="M19.3848 7.53835L19.3848 6.46143L8.61554 6.46143L8.61554 7.53835L19.3848 7.53835Z" fill="#AA82FF"/>
<path d="M19.3848 21.5383L19.3848 20.4614L8.61554 20.4614L8.61554 21.5383L19.3848 21.5383Z" fill="#AA82FF"/>
<path d="M19.3848 7.53835L19.3848 6.46143L8.61554 6.46143L8.61554 7.53835L19.3848 7.53835Z" fill="#AA82FF"/>
<path d="M19.3848 21.5383L19.3848 20.4614L8.61554 20.4614L8.61554 21.5383L19.3848 21.5383Z" fill="#AA82FF"/>
<path d="M7.53857 18.3078L7.53857 19.3848L8.6155 19.3848L8.6155 18.3078L7.53857 18.3078Z" fill="#16D5FF"/>
<path d="M18.3076 7.53831L18.3076 8.61523L19.3845 8.61523L19.3845 7.53831L18.3076 7.53831Z" fill="#16D5FF"/>
<path d="M8.61523 19.3845L8.61523 20.4614L9.69216 20.4614L9.69216 19.3845L8.61523 19.3845Z" fill="#16D5FF"/>
<path d="M19.3848 8.61546L19.3848 9.69238L20.4617 9.69238L20.4617 8.61546L19.3848 8.61546Z" fill="#16D5FF"/>
<path d="M16.1538 6.46169L16.1538 5.38477L11.8461 5.38477L11.8461 6.46169L16.1538 6.46169Z" fill="#5D42FF"/>
<path d="M16.1538 22.6155L16.1538 21.5386L11.8461 21.5386L11.8461 22.6155L16.1538 22.6155Z" fill="#5D42FF"/>
<path d="M16.1538 6.46169L16.1538 5.38477L11.8461 5.38477L11.8461 6.46169L16.1538 6.46169Z" fill="#5D42FF"/>
<path d="M16.1538 22.6155L16.1538 21.5386L11.8461 21.5386L11.8461 22.6155L16.1538 22.6155Z" fill="#5D42FF"/>
<path d="M7.53835 8.61523L6.46143 8.61523L6.46143 19.3845L7.53835 19.3845L7.53835 8.61523Z" fill="#AA82FF"/>
<path d="M21.5383 8.61523L20.4614 8.61523L20.4614 19.3845L21.5383 19.3845L21.5383 8.61523Z" fill="#AA82FF"/>
<path d="M6.46169 11.8462L5.38477 11.8462L5.38477 16.1539L6.46169 16.1539L6.46169 11.8462Z" fill="#FF0055"/>
<path d="M22.6155 11.8462L21.5386 11.8462L21.5386 16.1539L22.6155 16.1539L22.6155 11.8462Z" fill="#FF0055"/>
<path d="M3.23069 16.1539L4.30762 16.1539L4.30762 11.8462L3.23069 11.8462L3.23069 16.1539Z" fill="#FF709F"/>
<path d="M3.23069 16.1539L4.30762 16.1539L4.30762 11.8462L3.23069 11.8462L3.23069 16.1539Z" fill="#FF709F"/>
<path d="M23.6921 16.1539L24.769 16.1539L24.769 11.8462L23.6921 11.8462L23.6921 16.1539Z" fill="#FF709F"/>
<path d="M23.6921 16.1539L24.769 16.1539L24.769 11.8462L23.6921 11.8462L23.6921 16.1539Z" fill="#FF709F"/>
<path d="M15.0771 8.6155L15.0771 7.53857L12.9233 7.53857L12.9233 8.6155L15.0771 8.6155Z" fill="#00AED5"/>
<path d="M15.0771 20.4617L15.0771 19.3848L12.9233 19.3848L12.9233 20.4617L15.0771 20.4617Z" fill="#00AED5"/>
<path d="M15.0771 8.6155L15.0771 7.53857L12.9233 7.53857L12.9233 8.6155L15.0771 8.6155Z" fill="#00AED5"/>
<path d="M15.0771 20.4617L15.0771 19.3848L12.9233 19.3848L12.9233 20.4617L15.0771 20.4617Z" fill="#00AED5"/>
<path d="M4.30784 17.7693L5.38477 17.7693L5.38477 16.6924L4.30784 16.6924L4.30784 17.7693Z" fill="#FF709F"/>
<path d="M4.30784 11.3079L5.38477 11.3079L5.38477 10.231L4.30784 10.231L4.30784 11.3079Z" fill="#FF709F"/>
<path d="M4.30784 17.7693L5.38477 17.7693L5.38477 16.6924L4.30784 16.6924L4.30784 17.7693Z" fill="#FF709F"/>
<path d="M4.30784 11.3079L5.38477 11.3079L5.38477 10.231L4.30784 10.231L4.30784 11.3079Z" fill="#FF709F"/>
<path d="M2.15403 15.6155L3.23096 15.6155L3.23096 14.5386L2.15403 14.5386L2.15403 15.6155Z" fill="#FF709F"/>
<path d="M2.15403 13.4617L3.23096 13.4617L3.23096 12.3848L2.15403 12.3848L2.15403 13.4617Z" fill="#FF709F"/>
<path d="M2.15403 15.6155L3.23096 15.6155L3.23096 14.5386L2.15403 14.5386L2.15403 15.6155Z" fill="#FF709F"/>
<path d="M2.15403 13.4617L3.23096 13.4617L3.23096 12.3848L2.15403 12.3848L2.15403 13.4617Z" fill="#FF709F"/>
<path d="M24.7693 15.6155L25.8462 15.6155L25.8462 14.5386L24.7693 14.5386L24.7693 15.6155Z" fill="#FF709F"/>
<path d="M24.7693 13.4617L25.8462 13.4617L25.8462 12.3848L24.7693 12.3848L24.7693 13.4617Z" fill="#FF709F"/>
<path d="M24.7693 15.6155L25.8462 15.6155L25.8462 14.5386L24.7693 14.5386L24.7693 15.6155Z" fill="#FF709F"/>
<path d="M24.7693 13.4617L25.8462 13.4617L25.8462 12.3848L24.7693 12.3848L24.7693 13.4617Z" fill="#FF709F"/>
<path d="M0.0002254 15.6155L1.07715 15.6155L1.07715 14.5386L0.000225306 14.5386L0.0002254 15.6155Z" fill="#5D42FF"/>
<path d="M0.0002254 13.4617L1.07715 13.4617L1.07715 12.3848L0.000225306 12.3848L0.0002254 13.4617Z" fill="#5D42FF"/>
<path d="M0.0002254 15.6155L1.07715 15.6155L1.07715 14.5386L0.000225306 14.5386L0.0002254 15.6155Z" fill="#5D42FF"/>
<path d="M0.0002254 13.4617L1.07715 13.4617L1.07715 12.3848L0.000225306 12.3848L0.0002254 13.4617Z" fill="#5D42FF"/>
<path d="M26.9231 15.6155L28 15.6155L28 14.5386L26.9231 14.5386L26.9231 15.6155Z" fill="#5D42FF"/>
<path d="M26.9231 13.4617L28 13.4617L28 12.3848L26.9231 12.3848L26.9231 13.4617Z" fill="#5D42FF"/>
<path d="M26.9231 15.6155L28 15.6155L28 14.5386L26.9231 14.5386L26.9231 15.6155Z" fill="#5D42FF"/>
<path d="M26.9231 13.4617L28 13.4617L28 12.3848L26.9231 12.3848L26.9231 13.4617Z" fill="#5D42FF"/>
<path d="M8.6155 11.8462L7.53857 11.8462L7.53857 16.1539L8.6155 16.1539L8.6155 11.8462Z" fill="#FFA69A"/>
<path d="M20.4617 11.8462L19.3848 11.8462L19.3848 16.1539L20.4617 16.1539L20.4617 11.8462Z" fill="#FFA69A"/>
<path d="M22.6155 17.7693L23.6924 17.7693L23.6924 16.6924L22.6155 16.6924L22.6155 17.7693Z" fill="#FFA5C3"/>
<path d="M22.6155 11.3079L23.6924 11.3079L23.6924 10.231L22.6155 10.231L22.6155 11.3079Z" fill="#FFA5C3"/>
<path d="M22.6155 17.7693L23.6924 17.7693L23.6924 16.6924L22.6155 16.6924L22.6155 17.7693Z" fill="#FFA5C3"/>
<path d="M22.6155 11.3079L23.6924 11.3079L23.6924 10.231L22.6155 10.231L22.6155 11.3079Z" fill="#FFA5C3"/>
<path d="M15.0769 12.9229H14V13.9998H15.0769V12.9229Z" fill="#FFA69A"/>
<path d="M13.9998 14H12.9229V15.0769H13.9998V14Z" fill="#FFA69A"/>
</svg>
