<svg width="24" height="24" viewBox="0 0 24 24" fill="none" xmlns="http://www.w3.org/2000/svg">
<g clip-path="url(#clip0_18_35774)">
<path d="M19.4697 8.27344C20.5495 8.27344 21.4247 9.14876 21.4248 10.2285V19.4697C21.4248 20.5495 20.5495 21.4248 19.4697 21.4248H10.2285C9.1487 21.4248 8.27344 20.5495 8.27344 19.4697V10.2285C8.2735 9.14876 9.14874 8.27344 10.2285 8.27344H19.4697ZM10.2285 9.87305C10.0324 9.87305 9.87311 10.0324 9.87305 10.2285V19.4697C9.87305 19.6659 10.0324 19.8252 10.2285 19.8252H19.4697C19.6659 19.8252 19.8252 19.6659 19.8252 19.4697V10.2285C19.8251 10.0324 19.6658 9.87305 19.4697 9.87305H10.2285ZM15.627 3.08496C16.6127 3.18523 17.3818 4.01806 17.3818 5.03027V5.89648C17.3818 6.33827 17.0238 6.69622 16.582 6.69629C16.1402 6.69629 15.7822 6.33831 15.7822 5.89648V5.03027C15.7822 4.85858 15.66 4.71567 15.498 4.68262L15.4268 4.6748H5.03027C4.83412 4.6748 4.6748 4.83412 4.6748 5.03027V15.4268L4.68262 15.498C4.71567 15.66 4.85858 15.7822 5.03027 15.7822H5.89648L5.97852 15.7861C6.38184 15.8272 6.69629 16.1679 6.69629 16.582C6.69622 16.9961 6.3818 17.3369 5.97852 17.3779L5.89648 17.3818H5.03027C4.01805 17.3818 3.18523 16.6127 3.08496 15.627L3.0752 15.4268V5.03027C3.0752 3.95046 3.95046 3.0752 5.03027 3.0752H15.4268L15.627 3.08496Z" fill="white"/>
</g>
<defs>
<clipPath id="clip0_18_35774">
<rect width="19" height="19" fill="white" transform="translate(3 3)"/>
</clipPath>
</defs>
</svg>
