<svg width="24" height="24" viewBox="0 0 24 24" fill="none" xmlns="http://www.w3.org/2000/svg">
<g clip-path="url(#clip0_18_35905)">
<path d="M13.6275 20.0644C14.0311 20.1052 14.3462 20.446 14.3462 20.8603C14.3461 21.2746 14.031 21.6154 13.6275 21.6562L13.5464 21.6601H10.4556C10.0139 21.6601 9.65589 21.302 9.65576 20.8603C9.65576 20.4185 10.0138 20.0606 10.4556 20.0605H13.5464L13.6275 20.0644ZM11.9995 1.7002C12.4412 1.70031 12.7993 2.05824 12.7993 2.5V3.39844C16.4824 3.79591 19.3453 6.90964 19.3453 10.6992V16.8076H19.6499L19.732 16.8115C20.1353 16.8525 20.4497 17.1932 20.4497 17.6074C20.4495 18.0214 20.1352 18.3623 19.732 18.4033L19.6499 18.4072L4.3501 18.4072C3.90843 18.4072 3.55056 18.049 3.55029 17.6074C3.55029 17.1656 3.90827 16.8076 4.3501 16.8076H4.65674L4.65674 10.6992C4.65674 6.91056 7.51791 3.79713 11.1997 3.39844V2.5C11.1997 2.05817 11.5577 1.7002 11.9995 1.7002ZM12.0015 4.9541C8.82562 4.9541 6.25635 7.52337 6.25635 10.6992L6.25635 16.8076H17.7456V10.6992C17.7456 7.52364 15.177 4.95452 12.0015 4.9541Z" fill="white"/>
</g>
<defs>
<clipPath id="clip0_18_35905">
<rect width="18" height="21" fill="white" transform="translate(3 1)"/>
</clipPath>
</defs>
</svg>
