<svg width="375" height="44" viewBox="0 0 375 44" fill="none" xmlns="http://www.w3.org/2000/svg">
<rect width="375" height="44" fill="#0C0E10"/>
<path d="M36.9896 17.501C39.2455 17.501 41.2084 19.105 41.2084 22.9136V22.9282C41.2084 26.4878 39.6044 28.5972 36.9457 28.5972C35.0048 28.5972 33.5546 27.4473 33.2177 25.8286L33.203 25.748H35.0634L35.0854 25.8213C35.3637 26.561 36.0155 27.0444 36.9457 27.0444C38.6229 27.0444 39.3334 25.4038 39.414 23.3823C39.414 23.3018 39.4213 23.2212 39.4213 23.1406H39.2748C38.8866 23.9756 37.9638 24.7153 36.5136 24.7153C34.4848 24.7153 33.0639 23.2358 33.0639 21.229V21.2144C33.0639 19.0684 34.6972 17.501 36.9896 17.501ZM36.9823 23.2651C38.1762 23.2651 39.0917 22.4009 39.0917 21.207V21.1924C39.0917 19.9839 38.1762 19.0391 37.0043 19.0391C35.8397 19.0391 34.9096 19.9692 34.9096 21.1484V21.1631C34.9096 22.3862 35.7812 23.2651 36.9823 23.2651ZM44.3836 21.4854C43.7171 21.4854 43.219 20.9727 43.219 20.3281C43.219 19.6763 43.7171 19.1709 44.3836 19.1709C45.0574 19.1709 45.5481 19.6763 45.5481 20.3281C45.5481 20.9727 45.0574 21.4854 44.3836 21.4854ZM44.3836 26.9199C43.7171 26.9199 43.219 26.4146 43.219 25.7627C43.219 25.1108 43.7171 24.6055 44.3836 24.6055C45.0574 24.6055 45.5481 25.1108 45.5481 25.7627C45.5481 26.4146 45.0574 26.9199 44.3836 26.9199ZM52.6857 28.3335V26.3047H47.5148V24.7593C48.8845 22.3789 50.3859 19.9473 51.8215 17.7646H54.4948V24.7446H55.9157V26.3047H54.4948V28.3335H52.6857ZM49.2727 24.7886H52.715V19.2734H52.6052C51.5212 20.9287 50.298 22.8843 49.2727 24.6787V24.7886ZM60.1456 28.3335V19.625H60.0211L57.3917 21.4854V19.7056L60.1529 17.7646H62.0353V28.3335H60.1456Z" fill="white"/>
<path d="M296 24.3335C296.552 24.3335 297 24.7812 297 25.3335V27.3335C297 27.8856 296.552 28.3335 296 28.3335H295C294.448 28.3335 294 27.8856 294 27.3335V25.3335C294 24.7812 294.448 24.3335 295 24.3335H296ZM300.667 22.3335C301.219 22.3337 301.667 22.7813 301.667 23.3335V27.3335C301.667 27.8855 301.219 28.3333 300.667 28.3335H299.667C299.115 28.3335 298.667 27.8856 298.667 27.3335V23.3335C298.667 22.7812 299.115 22.3335 299.667 22.3335H300.667ZM305.333 19.9995C305.885 19.9995 306.333 20.4474 306.333 20.9995V27.3335C306.333 27.8856 305.885 28.3335 305.333 28.3335H304.333C303.781 28.3333 303.333 27.8855 303.333 27.3335V20.9995C303.333 20.4475 303.781 19.9997 304.333 19.9995H305.333ZM310 17.6665C310.552 17.6665 311 18.1142 311 18.6665V27.3335C311 27.8856 310.552 28.3335 310 28.3335H309C308.448 28.3335 308 27.8856 308 27.3335V18.6665C308 18.1142 308.448 17.6665 309 17.6665H310Z" fill="white"/>
<path d="M321.448 25.7573C322.729 24.6751 324.605 24.6751 325.886 25.7573C325.95 25.8155 325.987 25.8981 325.989 25.9849C325.991 26.0715 325.956 26.1546 325.895 26.2153L323.89 28.2378C323.831 28.2972 323.751 28.3306 323.667 28.3306C323.583 28.3305 323.503 28.2972 323.444 28.2378L321.438 26.2153C321.377 26.1546 321.343 26.0713 321.345 25.9849C321.347 25.8982 321.384 25.8155 321.448 25.7573ZM318.772 23.0601C321.532 20.4957 325.804 20.4957 328.563 23.0601C328.626 23.1202 328.661 23.203 328.662 23.2896C328.663 23.3759 328.629 23.4587 328.568 23.52L327.409 24.6909C327.29 24.8102 327.097 24.8121 326.975 24.6958C326.069 23.876 324.889 23.4223 323.667 23.4224C322.446 23.4229 321.268 23.8767 320.362 24.6958C320.24 24.8121 320.046 24.8104 319.927 24.6909L318.769 23.52C318.707 23.4588 318.673 23.376 318.674 23.2896C318.675 23.2031 318.71 23.1202 318.772 23.0601ZM316.097 20.3696C320.328 16.3176 327.004 16.3177 331.236 20.3696C331.298 20.4298 331.333 20.5123 331.333 20.5981C331.333 20.6839 331.3 20.7668 331.239 20.8276L330.079 21.9976C329.96 22.1177 329.765 22.1187 329.644 22.0005C328.031 20.4691 325.892 19.6148 323.667 19.6147C321.442 19.6148 319.302 20.4689 317.689 22.0005C317.568 22.1189 317.374 22.1177 317.255 21.9976L316.094 20.8276C316.033 20.7668 316 20.6839 316 20.5981C316.001 20.5123 316.035 20.4298 316.097 20.3696Z" fill="white"/>
<rect opacity="0.35" x="336.833" y="17.833" width="21" height="10.3333" rx="2.16667" stroke="white"/>
<path opacity="0.4" d="M359.333 20.9995V24.9995C360.138 24.6607 360.661 23.8726 360.661 22.9995C360.661 22.1264 360.138 21.3383 359.333 20.9995Z" fill="white"/>
<rect x="338.333" y="19.333" width="18" height="7.33333" rx="1.33333" fill="white"/>
</svg>
