<svg width="19" height="19" viewBox="0 0 19 19" fill="none" xmlns="http://www.w3.org/2000/svg">
<path d="M16.3945 5.19824C17.4743 5.19824 18.3495 6.07356 18.3496 7.15332V16.3945C18.3496 17.4743 17.4743 18.3496 16.3945 18.3496H7.15332C6.0735 18.3496 5.19824 17.4743 5.19824 16.3945V7.15332C5.1983 6.07356 6.07354 5.19824 7.15332 5.19824H16.3945ZM7.15332 6.79785C6.9572 6.79785 6.79791 6.95722 6.79785 7.15332V16.3945C6.79785 16.5907 6.95716 16.75 7.15332 16.75H16.3945C16.5907 16.75 16.75 16.5907 16.75 16.3945V7.15332C16.7499 6.95722 16.5906 6.79785 16.3945 6.79785H7.15332ZM12.5518 0.0097656C13.5375 0.110031 14.3066 0.942865 14.3066 1.95507V2.82128C14.3066 3.26307 13.9486 3.62102 13.5068 3.62109C13.065 3.62109 12.707 3.26311 12.707 2.82128V1.95507C12.707 1.78338 12.5848 1.64047 12.4228 1.60742L12.3516 1.5996H1.95507C1.75892 1.5996 1.5996 1.75892 1.5996 1.95507V12.3516L1.60742 12.4228C1.64047 12.5848 1.78338 12.707 1.95507 12.707H2.82128L2.90332 12.7109C3.30664 12.752 3.62109 13.0927 3.62109 13.5068C3.62102 13.9209 3.3066 14.2617 2.90332 14.3027L2.82128 14.3066H1.95507C0.942855 14.3066 0.110032 13.5375 0.0097656 12.5518L0 12.3516V1.95507C0 0.875266 0.875267 0 1.95507 0H12.3516L12.5518 0.0097656Z" fill="white"/>
</svg>
